HIERARCHY
ROOT Hips
{
	OFFSET 0.000000 0.000000 0.000000
	CHANNELS 6 Xposition Yposition Zposition Zrotation Yrotation Xrotation 
	JOINT Spine1
	{
		OFFSET -0.013727 5.003763 -0.053727
		CHANNELS 3 Zrotation Yrotation Xrotation
		JOINT Spine2
		{
			OFFSET -0.000000 7.125301 -0.029825
			CHANNELS 3 Zrotation Yrotation Xrotation
			JOINT Chest
			{
				OFFSET -0.000001 7.550064 -0.815971
				CHANNELS 3 Zrotation Yrotation Xrotation
				JOINT Neck1
				{
					OFFSET -0.181677 26.311296 -0.553348
					CHANNELS 3 Zrotation Yrotation Xrotation
					JOINT Neck2
					{
						OFFSET -0.000003 7.709399 2.302586
						CHANNELS 3 Zrotation Yrotation Xrotation
						JOINT Head
						{
							OFFSET -0.000005 6.128912 1.953709
							CHANNELS 3 Zrotation Yrotation Xrotation
							JOINT HeadEnd
							{
								OFFSET 0.003598 16.065401 -1.835379
								CHANNELS 3 Zrotation Yrotation Xrotation
								End Site
								{
									OFFSET 0.000000 0.000000 0.000000
								}
							}
							JOINT Jaw
							{
								OFFSET 0.002637 0.475591 3.094941
								CHANNELS 3 Zrotation Yrotation Xrotation
								End Site
								{
									OFFSET 0.000000 0.000000 0.000000
								}
							}
							JOINT LeftEye
							{
								OFFSET 3.206381 5.380208 7.586883
								CHANNELS 3 Zrotation Yrotation Xrotation
								End Site
								{
									OFFSET 0.000000 0.000000 0.000000
								}
							}
							JOINT RightEye
							{
								OFFSET -3.222440 5.361868 7.558233
								CHANNELS 3 Zrotation Yrotation Xrotation
								End Site
								{
									OFFSET 0.000000 0.000000 0.000000
								}
							}
						}
					}
				}
				JOINT LeftShoulder
				{
					OFFSET 1.621652 23.237164 5.113413
					CHANNELS 3 Zrotation Yrotation Xrotation
					JOINT LeftArm
					{
						OFFSET 14.919845 0.000000 -5.502326
						CHANNELS 3 Zrotation Yrotation Xrotation
						JOINT LeftForeArm
						{
							OFFSET 28.739309 0.000003 -0.002588
							CHANNELS 3 Zrotation Yrotation Xrotation
							JOINT LeftHand
							{
								OFFSET 27.093979 -0.000003 0.002608
								CHANNELS 3 Zrotation Yrotation Xrotation
								JOINT LeftHandThumb1
								{
									OFFSET 2.276480 -1.392046 3.191413
									CHANNELS 3 Zrotation Yrotation Xrotation
									JOINT LeftHandThumb2
									{
										OFFSET 4.012841 -1.828126 1.641655
										CHANNELS 3 Zrotation Yrotation Xrotation
										JOINT LeftHandThumb3
										{
											OFFSET 2.798517 0.000001 -0.000003
											CHANNELS 3 Zrotation Yrotation Xrotation
											JOINT LeftHandThumbEnd
											{
												OFFSET 3.180789 -0.000003 0.000003
												CHANNELS 3 Zrotation Yrotation Xrotation
												End Site
												{
													OFFSET 0.000000 0.000000 0.000000
												}
											}
										}
									}
								}
								JOINT LeftHandIndex1
								{
									OFFSET 3.247552 -0.531998 2.296169
									CHANNELS 3 Zrotation Yrotation Xrotation
									JOINT LeftHandIndex2
									{
										OFFSET 6.364580 0.012062 0.178600
										CHANNELS 3 Zrotation Yrotation Xrotation
										JOINT LeftHandIndex3
										{
											OFFSET 3.662366 0.000001 -0.000000
											CHANNELS 3 Zrotation Yrotation Xrotation
											JOINT LeftHandIndex4
											{
												OFFSET 2.329242 0.000001 0.000004
												CHANNELS 3 Zrotation Yrotation Xrotation
												JOINT LeftHandIndexEnd
												{
													OFFSET 2.759619 -0.180539 -0.113024
													CHANNELS 3 Zrotation Yrotation Xrotation
													End Site
													{
														OFFSET 0.000000 0.000000 0.000000
													}
												}
											}
										}
									}
								}
								JOINT LeftHandMiddle1
								{
									OFFSET 3.163499 0.240981 1.000332
									CHANNELS 3 Zrotation Yrotation Xrotation
									JOINT LeftHandMiddle2
									{
										OFFSET 6.190778 -0.259277 -1.002548
										CHANNELS 3 Zrotation Yrotation Xrotation
										JOINT LeftHandMiddle3
										{
											OFFSET 4.356523 -0.000006 0.000000
											CHANNELS 3 Zrotation Yrotation Xrotation
											JOINT LeftHandMiddle4
											{
												OFFSET 2.996875 -0.000006 0.000001
												CHANNELS 3 Zrotation Yrotation Xrotation
												JOINT LeftHandMiddleEnd
												{
													OFFSET 2.304294 -0.294571 -0.031740
													CHANNELS 3 Zrotation Yrotation Xrotation
													End Site
													{
														OFFSET 0.000000 0.000000 0.000000
													}
												}
											}
										}
									}
								}
								JOINT LeftHandRing1
								{
									OFFSET 2.882643 -0.053650 -0.322543
									CHANNELS 3 Zrotation Yrotation Xrotation
									JOINT LeftHandRing2
									{
										OFFSET 5.854544 -0.486203 -1.373841
										CHANNELS 3 Zrotation Yrotation Xrotation
										JOINT LeftHandRing3
										{
											OFFSET 4.350581 0.000000 0.000004
											CHANNELS 3 Zrotation Yrotation Xrotation
											JOINT LeftHandRing4
											{
												OFFSET 2.651324 0.000007 0.000004
												CHANNELS 3 Zrotation Yrotation Xrotation
												JOINT LeftHandRingEnd
												{
													OFFSET 1.936111 0.077685 -0.000070
													CHANNELS 3 Zrotation Yrotation Xrotation
													End Site
													{
														OFFSET 0.000000 0.000000 0.000000
													}
												}
											}
										}
									}
								}
								JOINT LeftHandPinky1
								{
									OFFSET 2.865500 -0.310004 -1.600378
									CHANNELS 3 Zrotation Yrotation Xrotation
									JOINT LeftHandPinky2
									{
										OFFSET 5.087852 -1.331142 -1.771231
										CHANNELS 3 Zrotation Yrotation Xrotation
										JOINT LeftHandPinky3
										{
											OFFSET 3.070974 0.000003 0.000000
											CHANNELS 3 Zrotation Yrotation Xrotation
											JOINT LeftHandPinky4
											{
												OFFSET 1.549667 -0.000000 0.000001
												CHANNELS 3 Zrotation Yrotation Xrotation
												JOINT LeftHandPinkyEnd
												{
													OFFSET 1.944894 -0.157802 0.057219
													CHANNELS 3 Zrotation Yrotation Xrotation
													End Site
													{
														OFFSET 0.000000 0.000000 0.000000
													}
												}
											}
										}
									}
								}
							}
						}
					}
				}
				JOINT RightShoulder
				{
					OFFSET -1.380118 23.180307 5.214158
					CHANNELS 3 Zrotation Yrotation Xrotation
					JOINT RightArm
					{
						OFFSET -15.037197 0.000011 -5.545603
						CHANNELS 3 Zrotation Yrotation Xrotation
						JOINT RightForeArm
						{
							OFFSET -28.736639 0.000002 -0.002597
							CHANNELS 3 Zrotation Yrotation Xrotation
							JOINT RightHand
							{
								OFFSET -27.133617 0.000000 0.002613
								CHANNELS 3 Zrotation Yrotation Xrotation
								JOINT RightHandThumb1
								{
									OFFSET -2.274037 -1.383990 3.163127
									CHANNELS 3 Zrotation Yrotation Xrotation
									JOINT RightHandThumb2
									{
										OFFSET -4.011430 -1.827468 1.640915
										CHANNELS 3 Zrotation Yrotation Xrotation
										JOINT RightHandThumb3
										{
											OFFSET -2.794935 -0.000004 -0.000003
											CHANNELS 3 Zrotation Yrotation Xrotation
											JOINT RightHandThumbEnd
											{
												OFFSET -3.183855 0.000004 -0.000000
												CHANNELS 3 Zrotation Yrotation Xrotation
												End Site
												{
													OFFSET 0.000000 0.000000 0.000000
												}
											}
										}
									}
								}
								JOINT RightHandIndex1
								{
									OFFSET -3.253269 -0.520059 2.282866
									CHANNELS 3 Zrotation Yrotation Xrotation
									JOINT RightHandIndex2
									{
										OFFSET -6.341919 0.012473 0.178265
										CHANNELS 3 Zrotation Yrotation Xrotation
										JOINT RightHandIndex3
										{
											OFFSET -3.654874 -0.000009 -0.000001
											CHANNELS 3 Zrotation Yrotation Xrotation
											JOINT RightHandIndex4
											{
												OFFSET -2.327586 -0.000000 0.000000
												CHANNELS 3 Zrotation Yrotation Xrotation
												JOINT RightHandIndexEnd
												{
													OFFSET -2.761789 -0.180657 -0.113078
													CHANNELS 3 Zrotation Yrotation Xrotation
													End Site
													{
														OFFSET 0.000000 0.000000 0.000000
													}
												}
											}
										}
									}
								}
								JOINT RightHandMiddle1
								{
									OFFSET -3.168107 0.246593 1.001031
									CHANNELS 3 Zrotation Yrotation Xrotation
									JOINT RightHandMiddle2
									{
										OFFSET -6.180829 -0.258836 -1.000896
										CHANNELS 3 Zrotation Yrotation Xrotation
										JOINT RightHandMiddle3
										{
											OFFSET -4.348905 -0.000000 -0.000000
											CHANNELS 3 Zrotation Yrotation Xrotation
											JOINT RightHandMiddle4
											{
												OFFSET -3.000243 -0.000003 -0.000002
												CHANNELS 3 Zrotation Yrotation Xrotation
												JOINT RightHandMiddleEnd
												{
													OFFSET -2.302517 -0.294372 -0.031706
													CHANNELS 3 Zrotation Yrotation Xrotation
													End Site
													{
														OFFSET 0.000000 0.000000 0.000000
													}
												}
											}
										}
									}
								}
								JOINT RightHandRing1
								{
									OFFSET -2.885693 -0.067952 -0.308858
									CHANNELS 3 Zrotation Yrotation Xrotation
									JOINT RightHandRing2
									{
										OFFSET -5.854196 -0.486132 -1.373732
										CHANNELS 3 Zrotation Yrotation Xrotation
										JOINT RightHandRing3
										{
											OFFSET -4.338814 -0.000003 -0.000000
											CHANNELS 3 Zrotation Yrotation Xrotation
											JOINT RightHandRing4
											{
												OFFSET -2.654906 -0.000004 0.000004
												CHANNELS 3 Zrotation Yrotation Xrotation
												JOINT RightHandRingEnd
												{
													OFFSET -1.933571 0.077524 -0.000052
													CHANNELS 3 Zrotation Yrotation Xrotation
													End Site
													{
														OFFSET 0.000000 0.000000 0.000000
													}
												}
											}
										}
									}
								}
								JOINT RightHandPinky1
								{
									OFFSET -2.866429 -0.342798 -1.584145
									CHANNELS 3 Zrotation Yrotation Xrotation
									JOINT RightHandPinky2
									{
										OFFSET -5.091370 -1.332054 -1.772385
										CHANNELS 3 Zrotation Yrotation Xrotation
										JOINT RightHandPinky3
										{
											OFFSET -3.062667 -0.000006 0.000000
											CHANNELS 3 Zrotation Yrotation Xrotation
											JOINT RightHandPinky4
											{
												OFFSET -1.546527 0.000005 -0.000002
												CHANNELS 3 Zrotation Yrotation Xrotation
												JOINT RightHandPinkyEnd
												{
													OFFSET -1.945122 -0.157721 0.057211
													CHANNELS 3 Zrotation Yrotation Xrotation
													End Site
													{
														OFFSET 0.000000 0.000000 0.000000
													}
												}
											}
										}
									}
								}
							}
						}
					}
				}
			}
		}
	}
	JOINT LeftLeg
	{
		OFFSET 10.043214 -8.434525 2.595655
		CHANNELS 3 Zrotation Yrotation Xrotation
		JOINT LeftShin
		{
			OFFSET -0.000002 -43.221752 -0.802913
			CHANNELS 3 Zrotation Yrotation Xrotation
			JOINT LeftFoot
			{
				OFFSET 0.000001 -42.155094 -3.481523
				CHANNELS 3 Zrotation Yrotation Xrotation
				JOINT LeftToeBase
				{
					OFFSET 0.000000 -5.059475 13.231529
					CHANNELS 3 Zrotation Yrotation Xrotation
					JOINT LeftToeEnd
					{
						OFFSET -0.009607 -1.647615 6.513017
						CHANNELS 3 Zrotation Yrotation Xrotation
						End Site
						{
							OFFSET 0.000000 0.000000 0.000000
						}
					}
				}
			}
		}
	}
	JOINT RightLeg
	{
		OFFSET -10.047277 -8.295260 2.620317
		CHANNELS 3 Zrotation Yrotation Xrotation
		JOINT RightShin
		{
			OFFSET 0.000000 -43.362209 -0.805556
			CHANNELS 3 Zrotation Yrotation Xrotation
			JOINT RightFoot
			{
				OFFSET 0.000002 -42.117393 -3.478399
				CHANNELS 3 Zrotation Yrotation Xrotation
				JOINT RightToeBase
				{
					OFFSET -0.000001 -5.079609 13.284196
					CHANNELS 3 Zrotation Yrotation Xrotation
					JOINT RightToeEnd
					{
						OFFSET 0.009532 -1.634383 6.460591
						CHANNELS 3 Zrotation Yrotation Xrotation
						End Site
						{
							OFFSET 0.000000 0.000000 0.000000
						}
					}
				}
			}
		}
	}
}
MOTION
Frames: 4
Frame Time: 0.033333
-2.471213 97.217094 3.412246 -1.171443 0.037185 0.534950 1.312720 0.279333 1.791755 -0.342896 -0.097386 -4.636383 2.448659 -2.573682 15.581081 -7.137558 8.475714 19.208162 0.889679 6.054116 -3.412192 -6.073581 8.170938 7.578123 0.000078 -0.000023 0.000005 0.072246 -0.117260 -0.168912 0.839844 -3.878148 -10.678658 -0.701974 3.635715 -10.675051 24.389032 -17.150225 6.127896 -96.717049 -34.558769 -13.147325 179.045456 -30.619968 -179.713776 -7.247219 -16.741009 -1.211560 -5.882100 9.861279 0.702590 -10.936861 -0.360575 7.156197 0.000001 8.774813 -0.000002 -16.400049 17.672630 5.870722 -1.844031 2.498503 -2.507276 -10.163589 4.678939 4.621103 -20.975994 -0.000004 0.000002 -21.226254 2.451693 -3.593994 0.000001 -0.000006 -0.000000 -1.362680 2.240797 -0.746323 -21.334887 0.584908 3.008320 -13.821198 -0.000003 0.000002 -23.887133 -0.249078 -0.839482 -60.902882 2.046754 -1.649369 -0.294024 1.679686 0.833256 -14.218195 0.093215 1.300579 -34.212002 -0.287564 0.967170 -20.033180 0.964535 1.212842 -0.000000 0.000000 0.000000 -3.440385 0.788232 0.501655 -15.928173 -3.167306 2.999704 -6.338817 -0.000002 0.000002 -18.123417 3.648175 -4.905662 -0.000004 -0.000000 -0.000002 -14.082685 25.821785 7.001591 96.701805 46.884209 18.510277 -179.067932 40.740849 -179.164139 -5.343191 12.306151 -20.493277 2.243539 -5.255032 -3.180155 14.282878 -0.826593 6.952497 -0.000003 -12.690590 -0.000001 16.715269 -18.518530 2.932844 1.665665 -1.955920 -2.878297 4.727794 -4.170583 4.993918 11.020512 0.000002 0.000000 12.109030 -3.735710 -2.866781 -0.000000 0.000001 -0.000001 1.291984 -1.928548 -1.498088 14.800111 0.567469 3.865604 14.242553 -1.341734 -6.660650 19.631939 0.143927 -0.648242 50.813782 -1.225699 -5.926013 0.353029 -1.511149 -0.031941 20.222769 3.684307 2.316631 18.787245 0.000005 0.000001 10.751610 -0.479866 1.397905 -0.000002 -0.000000 -0.000001 3.273804 0.305947 -0.580110 21.486792 11.830362 2.266132 8.162916 0.000001 0.000000 18.399052 -3.798978 -4.940567 0.000003 0.000001 0.000000 13.160613 27.775417 -17.836708 -0.302945 -0.935113 10.033854 -14.743207 -6.746671 17.203203 1.665389 -1.823995 -0.778032 -0.000000 0.000000 0.000002 -7.046342 -9.569114 -6.806874 0.048583 0.367912 23.558163 8.649899 5.224918 -14.711153 -1.445218 0.924495 -1.183557 0.000000 0.000000 -0.000001 
-2.446496 97.253052 3.494454 -1.168887 -0.111769 0.484824 1.348987 0.269394 1.817511 -0.281980 -0.153278 -4.657969 2.476120 -2.507715 15.628643 -7.199841 8.392890 18.984398 0.898687 6.074598 -3.383080 -6.215416 8.302112 7.460168 0.000077 -0.000022 0.000006 0.074176 -0.111698 -0.161401 0.841219 -3.876385 -10.677295 -0.690939 3.648283 -10.679046 24.481077 -17.266306 6.099934 -96.971779 -34.373566 -13.140504 178.952011 -30.344952 -179.672607 -7.418969 -16.917578 -1.237349 -5.882100 9.861278 0.702591 -10.936855 -0.360575 7.156197 0.000001 8.774814 -0.000000 -16.432337 17.696041 5.891525 -1.844030 2.498502 -2.507275 -10.163589 4.678941 4.621105 -20.975994 -0.000004 0.000003 -21.226250 2.451692 -3.593992 -0.000000 -0.000006 -0.000001 -1.362681 2.240796 -0.746323 -21.334894 0.584908 3.008322 -13.821197 -0.000003 0.000003 -23.887129 -0.249078 -0.839480 -60.948669 1.987460 -1.603202 -0.294025 1.679686 0.833256 -14.218195 0.093214 1.300580 -34.212006 -0.287563 0.967172 -20.033176 0.964535 1.212842 -0.000000 -0.000000 0.000000 -3.440387 0.788232 0.501655 -15.928167 -3.167307 2.999704 -6.338814 -0.000002 0.000002 -18.123411 3.648176 -4.905659 -0.000005 -0.000000 -0.000002 -14.257099 25.843309 7.102318 96.908554 46.959435 18.630054 -179.121582 40.694031 -179.188354 -5.182116 12.604909 -20.527840 2.243539 -5.255031 -3.180156 14.282871 -0.826594 6.952495 -0.000002 -12.690585 -0.000001 16.590940 -18.441813 2.990866 1.665665 -1.955919 -2.878297 4.727792 -4.170582 4.993918 11.020510 0.000003 -0.000003 12.109031 -3.735709 -2.866780 0.000000 0.000000 -0.000001 1.291984 -1.928547 -1.498088 14.800111 0.567467 3.865603 14.242553 -1.341733 -6.660650 19.631935 0.143927 -0.648245 50.776268 -1.206843 -5.882925 0.353029 -1.511149 -0.031939 20.222767 3.684305 2.316628 18.787245 0.000005 -0.000000 10.751612 -0.479868 1.397904 -0.000001 0.000002 -0.000001 3.273803 0.305947 -0.580110 21.486788 11.830359 2.266131 8.162914 0.000001 -0.000001 18.399054 -3.798979 -4.940567 0.000004 -0.000001 -0.000001 13.263917 27.734982 -17.649160 -0.294202 -0.876547 10.054025 -14.680700 -6.551630 17.157619 1.662545 -1.851753 -0.862607 -0.000000 0.000000 0.000002 -7.092584 -9.565237 -6.574799 0.038066 0.348638 23.238293 8.693004 5.500772 -14.585835 -1.447065 0.911847 -1.258036 -0.000000 -0.000000 -0.000001 
-2.421368 97.261673 3.571775 -1.159910 -0.166430 0.465042 1.385813 0.274845 1.826407 -0.252204 -0.195291 -4.675703 2.506459 -2.467593 15.665473 -7.207834 8.287365 18.788679 0.893270 6.084867 -3.354207 -6.347704 8.401419 7.373302 0.000077 -0.000023 0.000005 0.088667 -0.126888 -0.161977 0.848417 -3.904641 -10.709926 -0.676117 3.632375 -10.695458 24.588652 -17.394274 6.057866 -97.099350 -34.259933 -13.212290 178.926025 -30.084650 -179.671402 -7.530380 -17.049589 -1.242838 -5.882101 9.861279 0.702589 -10.936857 -0.360575 7.156196 0.000000 8.774813 -0.000002 -16.425983 17.673222 5.893000 -1.844030 2.498502 -2.507275 -10.163589 4.678939 4.621104 -20.975998 -0.000004 0.000002 -21.226255 2.451692 -3.593993 0.000001 -0.000006 -0.000001 -1.362679 2.240797 -0.746323 -21.334887 0.584908 3.008318 -13.821197 -0.000003 0.000002 -23.887133 -0.249079 -0.839481 -61.015621 1.971462 -1.546423 -0.294026 1.679686 0.833255 -14.218194 0.093214 1.300578 -34.211998 -0.287565 0.967169 -20.033180 0.964534 1.212842 -0.000000 0.000000 0.000000 -3.440385 0.788232 0.501655 -15.928167 -3.167306 2.999703 -6.338817 -0.000002 0.000001 -18.123415 3.648176 -4.905662 -0.000004 -0.000000 -0.000002 -14.389630 25.861492 7.156039 96.977943 47.064804 18.676346 -179.143219 40.759308 -179.162399 -5.081022 12.949086 -20.857939 2.243540 -5.255033 -3.180154 14.282877 -0.826592 6.952495 -0.000003 -12.690592 -0.000001 16.430418 -18.362928 3.063595 1.665665 -1.955920 -2.878297 4.727793 -4.170583 4.993917 11.020511 0.000003 -0.000001 12.109034 -3.735712 -2.866778 -0.000000 0.000001 -0.000001 1.291985 -1.928548 -1.498090 14.800111 0.567468 3.865602 14.242553 -1.341735 -6.660651 19.631937 0.143925 -0.648243 50.667534 -1.217010 -5.865724 0.353029 -1.511150 -0.031942 20.222769 3.684305 2.316629 18.787245 0.000004 -0.000000 10.751610 -0.479868 1.397905 -0.000001 0.000002 -0.000002 3.273804 0.305947 -0.580109 21.486790 11.830363 2.266130 8.162915 0.000002 -0.000002 18.399052 -3.798980 -4.940568 0.000003 0.000001 -0.000003 13.289604 27.760675 -17.578094 -0.287795 -0.842716 10.117864 -14.636244 -6.452513 17.051207 1.660204 -1.876939 -0.906596 -0.000000 0.000000 0.000002 -7.149552 -9.671579 -6.386732 0.034471 0.340333 22.982927 8.663668 5.808907 -14.574566 -1.446739 0.899471 -1.293654 -0.000000 -0.000000 -0.000001 
-2.426976 97.252922 3.594898 -1.166100 -0.182712 0.468058 1.422531 0.277874 1.822158 -0.235586 -0.205074 -4.668827 2.543958 -2.449616 15.677006 -7.223539 8.214147 18.647808 0.898940 6.040577 -3.368236 -6.476001 8.492270 7.315494 0.000077 -0.000023 0.000005 0.099418 -0.144045 -0.150190 0.853417 -3.911858 -10.677802 -0.660477 3.612034 -10.670181 24.648718 -17.475258 6.040235 -97.103165 -34.143185 -13.277514 178.946350 -29.835955 -179.661926 -7.601478 -17.120052 -1.223275 -5.882103 9.861278 0.702590 -10.936858 -0.360574 7.156196 0.000000 8.774814 -0.000001 -16.348822 17.623003 5.930945 -1.844030 2.498503 -2.507276 -10.163589 4.678940 4.621105 -20.975994 -0.000003 0.000002 -21.226250 2.451693 -3.593993 -0.000000 -0.000006 0.000000 -1.362681 2.240796 -0.746322 -21.334887 0.584908 3.008320 -13.821197 -0.000002 0.000002 -23.887133 -0.249077 -0.839482 -61.030010 1.982842 -1.509577 -0.294024 1.679686 0.833255 -14.218195 0.093215 1.300579 -34.212006 -0.287562 0.967170 -20.033180 0.964535 1.212841 -0.000000 -0.000000 0.000000 -3.440385 0.788232 0.501655 -15.928169 -3.167306 2.999704 -6.338815 -0.000001 0.000002 -18.123413 3.648176 -4.905661 -0.000005 -0.000000 -0.000002 -14.495056 25.835579 7.165027 97.072189 47.093445 18.682077 -179.223984 40.852631 -179.186340 -5.074609 13.236698 -21.518656 2.243540 -5.255033 -3.180153 14.282878 -0.826594 6.952496 -0.000002 -12.690590 -0.000001 16.354033 -18.300650 3.112887 1.665665 -1.955920 -2.878297 4.727795 -4.170583 4.993920 11.020513 0.000003 -0.000001 12.109033 -3.735710 -2.866776 0.000000 0.000000 -0.000001 1.291984 -1.928547 -1.498087 14.800111 0.567466 3.865605 14.242553 -1.341735 -6.660645 19.631939 0.143925 -0.648242 50.665768 -1.222656 -5.848838 0.353028 -1.511150 -0.031941 20.222767 3.684306 2.316631 18.787245 0.000004 0.000001 10.751610 -0.479867 1.397905 -0.000002 0.000001 -0.000001 3.273804 0.305947 -0.580111 21.486792 11.830363 2.266135 8.162917 0.000001 0.000000 18.399054 -3.798981 -4.940566 0.000003 0.000000 -0.000002 13.295732 27.827354 -17.552448 -0.272967 -0.819955 10.095214 -14.648072 -6.483976 17.005009 1.658470 -1.867966 -0.942632 -0.000000 -0.000001 0.000002 -7.164067 -9.840040 -6.288361 0.040813 0.349468 22.804098 8.664905 6.051996 -14.625367 -1.448374 0.907897 -1.271624 0.000000 0.000000 -0.000001 
